<?xml version="1.0" standalone="no"?>
<!DOCTYPE svg PUBLIC "-//W3C//DTD SVG 20010904//EN"
 "http://www.w3.org/TR/2001/REC-SVG-20010904/DTD/svg10.dtd">
<svg version="1.0" xmlns="http://www.w3.org/2000/svg"
 width="500.000000pt" height="500.000000pt" viewBox="0 0 500.000000 500.000000"
 preserveAspectRatio="xMidYMid meet">

<g transform="translate(0.000000,500.000000) scale(0.100000,-0.100000)"
fill="#000000" stroke="none">
<path d="M2235 4245 c-226 -42 -406 -119 -574 -245 -126 -95 -264 -254 -325
-373 -12 -24 -50 -75 -84 -113 -184 -203 -328 -478 -390 -744 -28 -117 -36
-198 -36 -355 0 -205 19 -334 75 -508 34 -108 130 -317 145 -317 10 0 120 73
161 106 39 32 60 43 49 26 -17 -28 146 -209 279 -310 33 -25 66 -52 73 -61 6
-8 27 -20 45 -26 17 -6 31 -16 30 -23 -2 -7 4 -9 14 -5 10 4 14 2 10 -4 -4 -6
0 -10 8 -9 7 0 14 -3 14 -9 0 -5 -7 -9 -15 -9 -9 1 -12 -1 -9 -5 10 -9 55 -8
49 1 -3 4 -3 8 -1 8 10 0 67 -32 72 -41 4 -5 11 -6 17 -3 7 5 9 2 6 -8 -5 -11
0 -14 18 -12 25 2 124 -35 124 -47 0 -4 -8 -10 -17 -12 -10 -2 -4 -4 14 -3 17
0 29 4 26 9 -6 10 9 9 26 -2 11 -7 11 -10 -2 -17 -23 -14 3 -31 33 -23 24 7
25 7 2 8 -13 1 -20 5 -17 11 3 5 16 8 28 6 12 -3 29 -5 37 -5 25 -2 -2 -18
-68 -40 -148 -50 -340 -5 -500 117 -24 18 -54 38 -67 44 -53 24 -105 -20 -91
-75 8 -34 119 -117 222 -167 233 -115 421 -104 669 39 146 84 347 259 502 436
156 179 227 290 362 565 114 232 166 373 158 430 -3 21 -2 41 2 43 3 2 0 2 -6
1 -7 -2 -13 1 -13 6 0 6 -3 9 -7 9 -5 -1 -18 -1 -29 0 -20 1 -21 4 -12 44 14
59 4 270 -16 341 -37 134 -122 284 -237 421 -116 138 -268 264 -395 326 -61
30 -78 34 -149 34 -68 0 -88 -5 -135 -29 -105 -55 -205 -130 -306 -230 -146
-145 -233 -268 -296 -416 -51 -121 -60 -166 -64 -310 -2 -111 1 -148 17 -209
11 -41 24 -82 30 -93 5 -10 7 -24 3 -31 -4 -6 -3 -9 1 -4 5 4 22 -19 38 -50
16 -32 36 -65 44 -75 8 -9 10 -18 5 -22 -6 -3 -13 0 -15 6 -3 7 -6 8 -6 2 -1
-5 6 -19 14 -30 14 -18 15 -18 9 0 -6 16 -4 17 14 7 23 -12 30 -31 11 -31 -5
0 -7 -5 -3 -11 5 -8 8 -8 13 0 5 7 17 1 34 -19 30 -34 36 -52 9 -27 -17 15
-18 15 -19 -6 0 -12 1 -16 4 -9 4 10 8 10 19 1 8 -6 14 -8 14 -4 0 4 30 -20
68 -52 69 -61 143 -115 175 -126 10 -4 15 -12 12 -18 -4 -6 -1 -9 7 -7 24 6
24 -14 -2 -31 -13 -9 -21 -11 -17 -5 6 11 -34 11 -110 0 -15 -2 -23 2 -23 12
0 26 -11 6 -15 -27 -5 -37 10 -50 19 -16 4 15 14 25 25 25 27 0 33 -11 13 -26
-15 -11 -14 -13 13 -25 29 -12 75 -55 75 -69 0 -3 23 -7 50 -9 30 -1 50 2 50
9 0 11 47 3 67 -12 7 -5 14 -5 17 1 4 6 13 8 22 4 25 -10 11 21 -16 34 -16 8
-19 12 -9 13 10 0 19 11 21 25 3 13 2 24 -1 23 -24 -2 -41 4 -36 13 10 14 85
1 104 -19 15 -14 14 -15 -5 -10 -12 3 -28 2 -35 -3 -10 -6 -8 -9 8 -9 12 0 24
-4 28 -10 3 -5 13 -7 23 -4 9 2 7 -1 -6 -8 -17 -9 -28 -9 -41 -1 -10 6 -23 8
-30 3 -9 -5 -6 -9 9 -13 12 -3 19 -10 15 -16 -3 -7 3 -11 15 -11 12 0 18 5 15
10 -3 6 -1 10 4 10 6 0 11 -4 11 -9 0 -5 15 -5 33 -1 19 4 31 12 29 20 -2 10
0 11 10 2 11 -8 25 -7 58 4 29 9 35 13 15 10 -16 -3 -39 -7 -50 -11 -14 -4
-12 -2 5 9 l25 14 -26 11 c-15 5 -36 7 -47 4 -11 -2 -22 -1 -25 4 -3 5 33 15
80 22 47 6 108 21 136 31 27 11 54 17 59 14 4 -3 8 0 8 6 0 6 10 15 23 20 27
12 80 45 139 87 25 18 49 29 53 25 3 -4 5 0 3 8 -2 8 3 14 10 12 8 -1 11 2 8
7 -8 12 20 34 33 27 5 -4 13 -1 17 5 4 8 3 9 -4 5 -26 -16 -10 12 27 47 l40
37 -26 -59 c-14 -33 -31 -58 -36 -54 -6 3 -7 1 -3 -6 22 -35 -246 -449 -302
-465 -134 -39 -306 -33 -447 16 -115 40 -283 147 -269 170 4 6 3 8 -3 5 -15
-9 -97 69 -88 84 5 8 4 10 -4 5 -11 -7 -68 51 -63 66 1 4 -2 7 -7 6 -10 -3
-71 76 -71 90 0 5 -9 17 -20 27 -12 10 -19 24 -16 31 3 7 -1 15 -7 17 -7 3
-22 25 -34 48 -57 117 -81 169 -103 224 -13 33 -26 65 -30 70 -9 13 -140 340
-152 380 -39 130 -50 344 -24 465 61 291 253 543 526 689 180 96 311 131 520
138 171 6 248 -2 386 -42 330 -96 612 -346 714 -631 76 -214 78 -409 6 -674
-14 -52 -37 -180 -51 -285 -45 -343 -86 -533 -167 -768 -22 -64 -37 -124 -34
-132 3 -8 1 -15 -4 -15 -6 0 -10 -9 -10 -19 0 -11 -5 -23 -10 -26 -6 -3 -10
-14 -9 -23 0 -11 3 -12 6 -4 8 20 21 14 32 -15 9 -21 10 -22 7 -5 -3 13 0 22
7 21 7 -1 22 -1 35 0 26 1 30 21 4 21 -9 0 -23 9 -30 20 -15 24 -5 26 19 4 45
-40 119 73 169 261 32 115 52 193 57 214 5 19 10 11 28 -42 30 -89 78 -166
153 -244 34 -36 62 -68 62 -70 0 -3 -27 -44 -60 -93 -70 -102 -193 -236 -299
-327 -72 -61 -107 -81 -80 -45 11 15 11 15 -1 4 -8 -7 -15 -17 -15 -22 0 -24
-193 -136 -330 -190 -118 -47 -116 -47 -165 -60 -25 -6 -58 -15 -75 -20 -59
-16 -131 -29 -230 -40 -113 -13 -152 -25 -165 -51 -29 -54 7 -89 93 -89 252 1
610 107 842 250 392 241 669 617 768 1042 38 160 42 197 41 388 0 163 -4 212
-23 300 -33 153 -73 268 -146 415 -73 146 -156 267 -268 390 -42 46 -104 124
-137 174 -193 288 -499 486 -845 545 -109 19 -340 19 -440 1z m349 -732 c121
-81 216 -167 310 -278 31 -36 56 -67 56 -69 0 -2 -47 -1 -105 1 -113 6 -155
-6 -155 -47 0 -32 39 -47 135 -53 83 -5 116 -12 187 -39 54 -20 98 -161 99
-313 1 -154 -32 -263 -114 -378 -149 -208 -377 -355 -552 -357 -205 -1 -501
223 -610 463 -72 157 -74 365 -4 526 19 44 24 49 83 70 38 13 104 25 166 30
109 8 133 21 123 60 -9 35 -46 44 -153 38 l-101 -5 17 26 c33 52 140 166 214
230 77 66 153 114 225 143 38 16 43 16 89 -2 27 -10 67 -31 90 -46z m1211
-938 c39 -38 30 -86 -22 -114 -70 -37 -136 58 -81 116 29 31 72 30 103 -2z
m-2552 -153 c10 -9 17 -29 17 -53 0 -43 -27 -69 -70 -69 -43 0 -70 26 -70 69
0 70 69 100 123 53z m394 -508 c40 -54 88 -116 107 -137 22 -24 33 -45 31 -58
-2 -11 0 -17 6 -14 5 4 6 11 2 18 -10 16 66 -43 80 -63 7 -9 24 -25 39 -34 15
-10 25 -22 22 -27 -3 -5 1 -6 9 -3 8 3 18 0 23 -7 4 -8 3 -10 -4 -5 -8 5 -10
2 -6 -9 5 -12 9 -13 20 -4 8 6 14 7 14 2 0 -5 10 -14 23 -19 12 -6 16 -9 10
-7 -7 1 -12 -1 -12 -5 3 -20 -2 -25 -12 -12 -8 12 -10 12 -7 1 2 -8 15 -16 29
-18 19 -2 21 -1 9 7 -33 21 29 10 89 -17 65 -29 86 -53 46 -53 -27 0 -42 15
-23 24 7 3 3 3 -10 0 -15 -4 -22 -1 -20 7 2 7 -2 13 -9 14 -6 0 -15 3 -19 8
-4 4 -11 7 -16 7 -8 0 13 -23 45 -48 20 -17 89 -34 81 -21 -3 5 1 9 8 9 10 0
9 3 -2 11 -17 12 -16 12 80 -15 30 -8 99 -18 152 -22 54 -4 98 -10 98 -15 0
-9 -137 -130 -175 -155 -22 -14 -34 -15 -88 -5 -135 26 -318 93 -447 164 -161
88 -341 239 -430 359 l-42 57 29 53 c15 29 34 69 40 88 22 62 53 194 53 225 0
24 11 9 53 -76 28 -58 84 -150 124 -205z m613 -41 c26 -9 28 -11 8 -8 -35 7
-37 -12 -2 -25 26 -10 24 -30 -4 -30 -13 0 -13 -2 4 -15 23 -17 9 -19 -35 -4
-43 15 -34 34 15 32 29 -1 34 0 19 7 -19 8 -42 30 -60 59 -6 11 -4 12 6 5 8
-5 30 -15 49 -21z m-143 -30 c3 -7 -3 -9 -16 -6 -12 3 -21 10 -21 15 0 13 32
6 37 -9z m39 -30 c-3 -21 -26 -30 -26 -10 0 7 3 17 7 20 12 12 21 7 19 -10z
m317 -10 c-7 -2 -19 -2 -25 0 -7 3 -2 5 12 5 14 0 19 -2 13 -5z m-268 -31
l-30 -5 25 -7 c22 -7 21 -8 -11 -9 -25 -1 -36 3 -36 14 0 11 11 15 41 14 36
-2 37 -3 11 -7z m238 1 c-7 -2 -19 -2 -25 0 -7 3 -2 5 12 5 14 0 19 -2 13 -5z
m-160 -10 c-7 -2 -19 -2 -25 0 -7 3 -2 5 12 5 14 0 19 -2 13 -5z m1000 -229
c-6 -17 -23 -9 -23 11 0 8 6 12 14 9 8 -3 12 -12 9 -20z"/>
<path d="M2156 2821 c-78 -68 -143 -73 -229 -20 -42 25 -62 24 -81 -3 -22 -30
-20 -42 9 -76 59 -70 197 -95 290 -51 50 24 125 99 125 127 0 26 -29 62 -50
62 -10 0 -39 -18 -64 -39z"/>
<path d="M2648 2849 c-26 -15 -22 -66 8 -106 14 -18 49 -47 77 -63 44 -25 63
-30 122 -30 138 1 252 94 187 153 -25 22 -48 21 -79 -3 -68 -53 -152 -45 -228
22 -45 40 -59 44 -87 27z"/>
<path d="M2267 2343 c-28 -27 25 -101 92 -129 43 -18 129 -18 172 0 71 30 116
80 104 116 -8 26 -40 26 -96 -2 -58 -29 -131 -29 -186 0 -42 22 -74 28 -86 15z"/>
<path d="M1736 1747 c3 -10 9 -15 12 -12 3 3 0 11 -7 18 -10 9 -11 8 -5 -6z"/>
<path d="M1811 1664 c0 -11 3 -14 6 -6 3 7 2 16 -1 19 -3 4 -6 -2 -5 -13z"/>
<path d="M1831 1651 c-1 -20 1 -21 14 -11 16 14 21 25 6 16 -5 -4 -12 0 -14 6
-3 7 -6 2 -6 -11z"/>
<path d="M1865 1620 c-3 -6 1 -7 9 -4 18 7 21 14 7 14 -6 0 -13 -4 -16 -10z"/>
<path d="M2220 1428 c0 -4 14 -8 30 -8 17 0 30 2 30 4 0 2 -13 6 -30 8 -16 3
-30 1 -30 -4z"/>
<path d="M2280 1410 c-13 -9 -13 -10 0 -10 8 0 22 5 30 10 13 9 13 10 0 10 -8
0 -22 -5 -30 -10z"/>
<path d="M2405 1400 c3 -5 8 -10 11 -10 2 0 4 5 4 10 0 6 -5 10 -11 10 -5 0
-7 -4 -4 -10z"/>
<path d="M1500 3201 c0 -5 7 -12 16 -15 10 -4 14 -12 9 -24 -4 -12 -3 -14 5
-6 6 6 8 18 5 27 -7 17 -35 32 -35 18z"/>
<path d="M1477 3193 c-4 -3 -7 -13 -7 -22 1 -13 3 -13 11 2 11 19 8 33 -4 20z"/>
<path d="M3380 3190 c20 -13 43 -13 35 0 -3 6 -16 10 -28 10 -18 0 -19 -2 -7
-10z"/>
<path d="M1500 3169 c0 -5 5 -7 10 -4 6 3 10 8 10 11 0 2 -4 4 -10 4 -5 0 -10
-5 -10 -11z"/>
<path d="M1460 3094 c0 -21 4 -33 10 -29 6 3 10 -4 10 -16 0 -12 3 -20 6 -17
8 9 -7 98 -17 98 -5 0 -9 -16 -9 -36z"/>
<path d="M1526 3064 c-4 -9 -4 -19 -1 -22 2 -3 7 3 11 12 4 9 4 19 1 22 -2 3
-7 -3 -11 -12z"/>
<path d="M3346 3023 c-4 -9 -3 -20 1 -24 4 -4 9 3 9 17 2 28 -1 31 -10 7z"/>
<path d="M3412 3020 c0 -14 2 -19 5 -12 2 6 2 18 0 25 -3 6 -5 1 -5 -13z"/>
<path d="M1501 2984 c0 -11 3 -14 6 -6 3 7 2 16 -1 19 -3 4 -6 -2 -5 -13z"/>
<path d="M1525 2950 c-3 -5 -1 -10 4 -10 6 0 11 5 11 10 0 6 -2 10 -4 10 -3 0
-8 -4 -11 -10z"/>
<path d="M3363 2909 c-4 -22 -8 -27 -14 -17 -6 9 -9 7 -9 -9 0 -12 4 -24 9
-27 10 -7 21 17 21 45 0 10 5 19 10 19 6 0 10 5 10 10 0 24 -21 7 -27 -21z"/>
<path d="M3382 2880 c0 -14 2 -19 5 -12 2 6 2 18 0 25 -3 6 -5 1 -5 -13z"/>
<path d="M1532 2835 c0 -16 2 -22 5 -12 2 9 2 23 0 30 -3 6 -5 -1 -5 -18z"/>
<path d="M3331 2834 c0 -11 3 -14 6 -6 3 7 2 16 -1 19 -3 4 -6 -2 -5 -13z"/>
<path d="M1562 2803 c-1 -13 -6 -23 -11 -23 -14 0 -22 -31 -12 -44 6 -7 8 -27
5 -45 -4 -25 -2 -32 8 -29 12 5 13 26 2 76 -2 12 0 22 6 22 6 0 9 -4 5 -9 -3
-5 -1 -12 4 -15 5 -3 11 3 14 14 3 11 1 18 -3 15 -5 -3 -11 9 -13 27 -2 20 -4
24 -5 11z"/>
<path d="M3371 2804 c0 -11 3 -14 6 -6 3 7 2 16 -1 19 -3 4 -6 -2 -5 -13z"/>
<path d="M3342 2785 c0 -16 2 -22 5 -12 2 9 2 23 0 30 -3 6 -5 -1 -5 -18z"/>
<path d="M1491 2784 c0 -11 3 -14 6 -6 3 7 2 16 -1 19 -3 4 -6 -2 -5 -13z"/>
<path d="M1518 2777 c-3 -19 -2 -25 4 -19 6 6 8 18 6 28 -3 14 -5 12 -10 -9z"/>
<path d="M1581 2694 c0 -11 3 -14 6 -6 3 7 2 16 -1 19 -3 4 -6 -2 -5 -13z"/>
<path d="M3311 2686 c-8 -13 -11 -30 -8 -38 3 -7 6 -2 6 12 1 20 3 22 11 10 8
-12 10 -9 10 13 0 33 -3 34 -19 3z"/>
<path d="M3342 2660 c0 -14 2 -19 5 -12 2 6 2 18 0 25 -3 6 -5 1 -5 -13z"/>
<path d="M3270 2638 c0 -48 10 -78 26 -78 17 0 18 12 2 28 -9 9 -9 12 0 12 7
0 12 5 12 11 0 5 -4 7 -10 4 -6 -4 -10 7 -10 24 0 17 -4 31 -10 31 -5 0 -10
-15 -10 -32z"/>
<path d="M1540 2611 c0 -13 28 -33 33 -23 3 4 -3 13 -14 20 -10 7 -19 8 -19 3z"/>
<path d="M3323 2595 c-3 -9 -3 -18 -1 -21 3 -3 8 4 11 16 6 23 -1 27 -10 5z"/>
<path d="M1621 2564 c0 -11 3 -14 6 -6 3 7 2 16 -1 19 -3 4 -6 -2 -5 -13z"/>
<path d="M1581 2523 c-1 -29 34 -32 42 -3 3 13 0 20 -9 20 -8 0 -14 -8 -15
-17 0 -15 -2 -15 -9 2 -8 19 -9 19 -9 -2z"/>
<path d="M1552 2495 c0 -16 2 -22 5 -12 2 9 2 23 0 30 -3 6 -5 -1 -5 -18z"/>
<path d="M1632 2470 c0 -19 2 -27 5 -17 2 9 2 25 0 35 -3 9 -5 1 -5 -18z"/>
<path d="M1585 2457 c4 -8 2 -18 -4 -22 -6 -3 -11 -12 -11 -18 0 -7 4 -6 11 3
9 12 10 11 6 -7 -3 -13 -1 -23 5 -23 6 0 8 11 6 25 -3 13 -1 26 5 28 5 1 2 9
-7 16 -14 12 -16 12 -11 -2z"/>
<path d="M1624 2409 c-8 -14 11 -33 25 -25 11 7 4 36 -9 36 -5 0 -12 -5 -16
-11z"/>
<path d="M1595 2370 c-3 -5 -1 -10 4 -10 6 0 11 5 11 10 0 6 -2 10 -4 10 -3 0
-8 -4 -11 -10z"/>
<path d="M1695 2359 c-4 -6 -5 -12 -2 -15 2 -3 7 2 10 11 7 17 1 20 -8 4z"/>
<path d="M1700 2305 c-7 -8 -16 -12 -21 -9 -5 3 -9 0 -9 -5 0 -6 -7 -11 -15
-11 -19 0 -19 -21 1 -46 14 -18 15 -18 4 4 -7 13 -9 26 -6 29 3 3 11 -6 17
-20 9 -19 9 -30 1 -40 -7 -8 -7 -18 -2 -27 7 -10 10 -11 10 -2 0 6 5 12 10 12
6 0 10 -8 10 -17 0 -15 2 -15 20 3 14 13 18 27 14 38 -6 16 -8 17 -16 2 -13
-23 -28 -20 -28 7 0 13 -5 28 -11 34 -7 7 -1 18 21 37 17 14 27 26 22 26 -5 0
-15 -7 -22 -15z"/>
<path d="M1725 2263 c0 -28 19 -25 23 4 2 11 -3 20 -10 20 -7 0 -13 -11 -13
-24z"/>
<path d="M1763 2173 c-7 -2 -13 -11 -13 -18 0 -7 -7 -15 -15 -19 -8 -3 -15
-10 -15 -17 0 -6 7 -9 15 -6 8 4 17 2 20 -3 4 -7 13 -7 24 0 10 5 21 6 25 3 3
-3 6 -1 6 6 0 7 -6 11 -14 8 -9 -4 -17 1 -19 11 -4 16 -5 15 -6 0 0 -10 -5
-18 -11 -18 -17 0 -11 19 10 32 31 20 26 35 -7 21z"/>
<path d="M1823 2155 c-3 -9 -3 -18 -1 -21 3 -3 8 4 11 16 6 23 -1 27 -10 5z"/>
<path d="M1796 2085 c-8 -22 3 -40 16 -27 7 7 7 16 1 27 -9 16 -10 16 -17 0z"/>
<path d="M1875 2080 c3 -5 11 -10 16 -10 6 0 7 5 4 10 -3 6 -11 10 -16 10 -6
0 -7 -4 -4 -10z"/>
<path d="M1910 2056 c0 -9 5 -16 10 -16 6 0 10 4 10 9 0 6 -4 13 -10 16 -5 3
-10 -1 -10 -9z"/>
<path d="M1880 2050 c0 -5 5 -10 11 -10 5 0 7 5 4 10 -3 6 -8 10 -11 10 -2 0
-4 -4 -4 -10z"/>
<path d="M1934 2038 c-12 -19 -15 -66 -5 -73 5 -3 7 4 4 15 -3 11 0 20 6 20 5
0 8 6 5 14 -3 8 -1 17 5 21 6 3 11 -1 11 -9 0 -9 6 -16 13 -16 7 0 4 -7 -7
-15 -19 -14 -18 -15 15 -15 25 0 30 3 19 10 -8 5 -12 10 -8 10 8 0 -37 50 -45
50 -3 0 -9 -5 -13 -12z"/>
<path d="M1803 2034 c5 -5 28 -11 50 -13 4 -1 7 -6 7 -12 0 -6 -7 -8 -16 -5
-8 3 -12 2 -9 -4 9 -15 55 -12 55 3 0 8 -10 18 -22 24 -24 11 -74 16 -65 7z"/>
<path d="M1838 1948 c5 -5 16 -8 23 -6 8 3 3 7 -10 11 -17 4 -21 3 -13 -5z"/>
<path d="M1915 1933 c14 -16 23 -34 20 -40 -2 -7 0 -13 5 -13 6 0 10 9 10 20
0 11 5 20 10 20 6 0 10 7 10 16 0 12 -3 14 -13 6 -8 -7 -18 -6 -31 4 -32 23
-39 16 -11 -13z"/>
<path d="M2080 1940 c0 -22 60 -54 74 -40 8 8 6 9 -6 5 -12 -5 -20 -1 -24 9
-3 9 -10 14 -14 11 -5 -3 -13 3 -19 12 -8 14 -10 15 -11 3z"/>
<path d="M1880 1937 c0 -3 7 -18 15 -33 11 -21 15 -24 15 -11 0 10 -7 25 -15
33 -8 9 -15 13 -15 11z"/>
<path d="M3526 1925 c-9 -26 -7 -32 5 -12 6 10 9 21 6 23 -2 3 -7 -2 -11 -11z"/>
<path d="M2780 1920 c-9 -6 -10 -10 -3 -10 6 0 15 5 18 10 8 12 4 12 -15 0z"/>
<path d="M1850 1916 c0 -2 8 -10 18 -17 15 -13 16 -12 3 4 -13 16 -21 21 -21
13z"/>
<path d="M2085 1900 c3 -5 11 -10 16 -10 6 0 7 5 4 10 -3 6 -11 10 -16 10 -6
0 -7 -4 -4 -10z"/>
<path d="M3570 1895 c0 -8 4 -15 10 -15 5 0 7 7 4 15 -4 8 -8 15 -10 15 -2 0
-4 -7 -4 -15z"/>
<path d="M1930 1860 c20 -13 33 -13 25 0 -3 6 -14 10 -23 10 -15 0 -15 -2 -2
-10z"/>
<path d="M2618 1853 c7 -3 16 -2 19 1 4 3 -2 6 -13 5 -11 0 -14 -3 -6 -6z"/>
<path d="M2535 1840 l-20 -9 20 0 c11 0 27 4 35 9 13 9 13 10 0 9 -8 0 -24 -4
-35 -9z"/>
<path d="M2605 1830 c3 -5 14 -10 23 -10 15 0 15 2 2 10 -20 13 -33 13 -25 0z"/>
<path d="M2552 1822 c-8 -6 -2 -9 17 -9 17 0 28 4 25 9 -7 10 -25 10 -42 0z"/>
<path d="M3510 1810 c0 -6 11 -8 28 -4 39 10 40 14 4 14 -18 0 -32 -5 -32 -10z"/>
<path d="M2040 1784 c-17 -10 -18 -13 -5 -8 11 3 25 7 32 7 7 0 10 4 7 9 -6
10 -4 10 -34 -8z"/>
<path d="M2066 1754 c-5 -14 -4 -15 9 -4 17 14 19 20 6 20 -5 0 -12 -7 -15
-16z"/>
<path d="M3491 1744 c0 -11 3 -14 6 -6 3 7 2 16 -1 19 -3 4 -6 -2 -5 -13z"/>
<path d="M3516 1743 c4 -10 7 -29 7 -43 -1 -20 1 -21 8 -8 9 16 -4 68 -17 68
-3 0 -3 -8 2 -17z"/>
<path d="M3410 1569 c0 -5 5 -7 10 -4 6 3 10 8 10 11 0 2 -4 4 -10 4 -5 0 -10
-5 -10 -11z"/>
<path d="M3354 1525 c1 -17 4 -21 14 -13 16 14 15 25 -2 31 -10 4 -13 -2 -12
-18z"/>
<path d="M3318 1493 c7 -3 16 -2 19 1 4 3 -2 6 -13 5 -11 0 -14 -3 -6 -6z"/>
<path d="M3236 1435 c-3 -8 -13 -15 -22 -15 -10 0 -15 -3 -12 -6 11 -11 78 8
78 22 0 19 -36 18 -44 -1z"/>
<path d="M3258 1403 c7 -3 16 -2 19 1 4 3 -2 6 -13 5 -11 0 -14 -3 -6 -6z"/>
<path d="M3367 1378 c-4 -12 -4 -24 -2 -27 3 -2 5 1 5 8 0 7 4 10 9 7 5 -4 7
3 4 14 -7 25 -9 25 -16 -2z"/>
<path d="M3144 1378 c-4 -7 -14 -23 -22 -35 -8 -13 -12 -23 -9 -23 9 0 50 61
44 66 -3 3 -8 -1 -13 -8z"/>
<path d="M3369 1293 c-13 -16 -12 -17 4 -4 16 13 21 21 13 21 -2 0 -10 -8 -17
-17z"/>
<path d="M3081 1282 c-17 -31 -13 -40 5 -14 9 13 14 26 11 29 -3 2 -10 -4 -16
-15z"/>
<path d="M1790 1210 c8 -6 24 -16 35 -22 18 -9 17 -8 -2 11 -12 11 -28 21 -35
21 -9 0 -9 -3 2 -10z"/>
<path d="M3095 1190 c-3 -5 1 -10 9 -10 9 0 16 5 16 10 0 6 -4 10 -9 10 -6 0
-13 -4 -16 -10z"/>
<path d="M1858 1183 c7 -3 16 -2 19 1 4 3 -2 6 -13 5 -11 0 -14 -3 -6 -6z"/>
<path d="M3027 1177 c-3 -8 1 -14 8 -14 7 0 11 6 8 14 -3 7 -6 13 -8 13 -2 0
-5 -6 -8 -13z"/>
<path d="M1860 1166 c0 -2 7 -7 16 -10 8 -3 12 -2 9 4 -6 10 -25 14 -25 6z"/>
<path d="M2990 1158 c0 -9 -10 -23 -22 -32 l-23 -17 23 11 c24 12 39 36 28 47
-3 4 -6 -1 -6 -9z"/>
<path d="M3125 1135 c0 -27 3 -31 16 -25 9 5 22 17 29 27 12 15 12 16 0 6 -8
-7 -21 -13 -29 -12 -11 0 -12 2 -3 6 6 2 12 8 12 13 0 4 -6 10 -12 13 -9 3
-13 -6 -13 -28z"/>
<path d="M3030 1079 c0 -5 5 -7 10 -4 6 3 10 2 10 -2 0 -12 38 -14 45 -2 3 5
-1 6 -9 3 -9 -3 -16 -1 -16 5 0 6 -9 11 -20 11 -11 0 -20 -5 -20 -11z"/>
<path d="M2975 1070 c-8 -13 18 -23 42 -17 14 4 13 5 -5 6 -13 0 -20 6 -17 11
3 6 2 10 -4 10 -5 0 -13 -5 -16 -10z"/>
<path d="M2855 1018 l-20 -21 25 14 c14 7 28 12 33 11 4 -1 7 3 7 8 0 16 -24
10 -45 -12z"/>
<path d="M2809 969 c-23 -19 -23 -20 -2 -10 12 6 25 16 28 21 10 16 -1 12 -26
-11z"/>
</g>
</svg>
